<svg width="88.176mm" height="119.29mm" version="1.1" viewBox="0 0 88.176 119.29" xmlns="http://www.w3.org/2000/svg">
 <g transform="translate(-51.096 -105.49)">
  <path d="m89.518 224.4c-4.1586-1.0007-9.3799-3.4522-12.01-5.6388-0.63895-0.53129-1.7801-1.4422-2.5358-2.0243-3.116-2.4-6.1893-6.1834-8.1041-9.9766-0.45102-0.89347-0.9865-1.791-1.19-1.9944-0.20346-0.20345-0.36992-0.81385-0.36992-1.3564 0-0.54258-0.09899-1.0996-0.21998-1.2379-0.18151-0.20739-0.40328-0.83584-0.97573-2.7649-0.32695-1.1018-0.71029-1.5789-1.2442-1.5486-0.33151 0.0188-0.94474-0.10393-1.3627-0.27269-0.69772-0.2817-0.7487-0.26376-0.62245 0.21904 0.07682 0.29376 0.01426 0.50068-0.14173 0.46878-0.27355-0.0559-0.82408 0.81021-1.0989 1.7288-0.09124 0.30503-0.40482 0.46302-0.91898 0.46302-0.61778 0-0.90677-0.20683-1.3863-0.99219-0.33323-0.5457-0.74785-1.1112-0.92137-1.2568-0.17352-0.14552-0.51117-0.97896-0.75033-1.8521-0.23916-0.87313-0.59494-1.9447-0.79064-2.3812-0.50618-1.1292-1.4981-4.0674-1.7417-5.1594-0.11364-0.50932-0.50145-2.2357-0.8618-3.8365-1.1367-5.0495-1.3757-7.6068-1.0294-11.013 0.16838-1.6557 0.42434-3.6057 0.56882-4.3333 0.14448-0.72761 0.34049-1.9515 0.4356-2.7197 0.0951-0.76825 0.27496-1.4599 0.39968-1.537 0.12472-0.0771 0.22677-0.36161 0.22677-0.63227s0.17751-0.82918 0.39446-1.2412c0.21695-0.41198 0.88438-1.9397 1.4832-3.3949 0.5988-1.4552 1.2547-2.8338 1.4576-3.0635 0.2029-0.22974 0.3689-0.53596 0.3689-0.68047 0-0.14452 0.35388-0.73046 0.78639-1.3021 0.43251-0.57162 0.7897-1.2378 0.79375-1.4803 4e-3 -0.24253 0.10775-0.48066 0.23044-0.52917 0.12269-0.0485 0.79683-0.8465 1.4981-1.7733 2.4614-3.2532 7.0293-7.5369 10.15-9.5187 0.8375-0.53184 2.1043-1.3539 2.815-1.8269 0.71076-0.47294 1.5596-0.8599 1.8863-0.8599 0.32672 0 0.65812-0.10368 0.73644-0.23041 0.07832-0.12672 0.48659-0.29924 0.90727-0.38338 0.47022-0.094 0.81954-0.36202 0.90678-0.69563 0.07805-0.29846 0.33165-0.54266 0.56356-0.54266 0.2319 0 0.42216-0.20836 0.4228-0.46302 5.3e-4 -0.25466 0.30727-1.2965 0.68142-2.3151 0.37414-1.0186 0.74469-2.12 0.82344-2.4474 0.07875-0.32742 0.2314-0.59531 0.33922-0.59531 0.10782 0 0.26925-0.70037 0.35872-1.5564 0.08947-0.85601 0.28618-2.0764 0.43713-2.712 0.45624-1.921 1.1216-5.8506 1.1812-6.9764 0.11473-2.1661-0.75379-2.5507-2.404-1.0645-0.56177 0.50595-1.1759 0.92267-1.3648 0.92604-0.18888 3e-3 -0.6056 0.30061-0.92604 0.66052-0.64766 0.72742-1.442 0.93392-3.689 0.95896-2.2674 0.0253-6.8155-0.33282-6.8155-0.53661 0-0.0979-0.77719-0.40028-1.7271-0.67193-5.2231-1.4937-7.8045-5.8115-5.1175-8.5599 0.45208-0.4624 1.0617-0.84073 1.3547-0.84073s1.7374-0.54665 3.2098-1.2148 3.3914-1.3737 4.2646-1.5679c0.87312-0.19421 2.3872-0.58297 3.3645-0.86389 1.9295-0.55461 5.0623-0.56607 6.1133-0.0224 0.31701 0.164 1.2674 0.99707 2.1121 1.8513 2.2463 2.2717 2.6489 2.2148 5.6539-0.79884 2.7384-2.7462 3.1985-2.9361 7.1194-2.9383 2.5122-1e-3 4.65 0.41141 6.9362 1.3393 0.33427 0.13567 0.89008 0.24668 1.2351 0.24668 0.98832 0 1.4538 0.27026 1.8779 1.0904 0.21663 0.41892 0.50375 0.76168 0.63804 0.76168s0.55572 0.28875 0.93653 0.64167c0.60999 0.56532 0.79263 0.6078 1.535 0.35697 0.46344-0.15658 1.5235-0.79083 2.3556-1.4094 1.8719-1.3915 3.4162-1.6873 5.531-1.0592 0.78244 0.23236 1.4821 0.43521 1.5549 0.45078 1.1862 0.25379 3.903 1.0809 4.6302 1.4096 0.43657 0.19734 1.5379 0.56628 2.4474 0.81986 0.9095 0.25358 1.6536 0.56829 1.6536 0.69936s0.10539 0.17318 0.2342 0.0936c0.27336-0.16895 1.8825 0.34732 1.8825 0.60397 0 0.0958 0.38695 0.34229 0.8599 0.54784 2.369 1.0296 3.2504 3.3848 2.0597 5.5034-1.199 2.1333-4.9358 3.7312-9.2696 3.9639-2.112 0.11338-2.9488 0.0269-5.2381-0.54132-2.4972-0.61983-4.5515-1.5215-4.5515-1.9978 0-0.10584-0.17702-0.42355-0.39337-0.70602-0.35151-0.45894-0.37682-0.0913-0.23783 3.4552 0.0855 2.1828 0.22938 4.0878 0.31963 4.2333 0.0902 0.14552 0.30363 1.2171 0.47418 2.3812 0.18844 1.2863 0.67876 2.947 1.2499 4.2333 0.97468 2.1952 1.0758 2.684 1.4932 7.2194 0.26828 2.915 0.54871 3.4962 1.6867 3.4962 0.3638 0 0.84005 0.17859 1.0583 0.39687s0.56552 0.39688 0.77164 0.39688c0.20613 0 0.59027 0.23812 0.85366 0.52916 0.26339 0.29105 0.59213 0.52917 0.73054 0.52917 0.21192 0 2.1563 1.3951 2.5768 1.8489 0.0728 0.0785 0.78714 0.67218 1.5875 1.3192 2.2239 1.7979 5.7263 5.4219 7.6778 7.9444 0.50662 0.65484 1.0278 1.2679 1.1581 1.3624 0.13035 0.0944 0.16618 0.35628 0.0796 0.58184-0.10052 0.26195-0.0374 0.36405 0.17481 0.28263 0.35074-0.13459 1.493 1.8721 1.493 2.6229 0 0.23439 0.59532 1.3036 1.3229 2.376 0.76743 1.1311 1.3229 2.2454 1.3229 2.6537 0 0.38716 0.10581 0.70392 0.23514 0.70392 0.12932 0 0.31812 0.44237 0.41955 0.98305 0.10143 0.54067 0.33662 1.2848 0.52263 1.6536 0.18602 0.36884 0.42169 1.3232 0.52372 2.1208 0.10202 0.79763 0.29168 1.5159 0.42146 1.5961 0.12978 0.0802 0.4153 1.1742 0.63449 2.4312 1.3941 7.9943 0.15693 17.419-3.2578 24.817-1.6787 3.6372-3.1864 5.9733-5.3683 8.3182l-1.7083 1.8359-0.91098-0.69483c-0.75018-0.5722-0.99606-1.0251-1.393-2.5661-0.5249-2.0376-0.9692-2.4902-2.1377-2.1777-0.57489 0.15375-0.81761 0.47512-1.1903 1.576-0.25748 0.76056-0.66493 1.6003-0.90546 1.8661s-0.43733 0.5595-0.43733 0.65272c0 0.37814-2.6848 4.6836-2.9206 4.6836-0.13989 0-0.25626 0.14883-0.25859 0.33073-5e-3 0.38362-3.886 4.2995-4.2613 4.2995-0.13842 0-0.34022 0.14329-0.44846 0.31842-0.31591 0.51115-2.5201 1.9205-3.0119 1.9257-0.24743 3e-3 -0.54509 0.16302-0.66146 0.35639-0.11637 0.19336-0.92596 0.6244-1.7991 0.95786-1.6135 0.61624-3.8034 1.4875-4.7625 1.8949-0.80173 0.34052-6.8016 0.78673-9.7896 0.72803-1.4552-0.0286-3.2411-0.19521-3.9688-0.37029zm11.112-0.95789c2.1688-0.34773 5.1217-1.2143 5.6886-1.6693 0.21828-0.17523 0.81359-0.47965 1.3229-0.67648 1.1234-0.43415 4.7573-2.6441 5.4807-3.3331 0.28714-0.27349 1.2728-1.2116 2.1904-2.0848 1.6338-1.5547 3.2668-3.5596 4.4131-5.4181 0.6067-0.98369 2.468-4.5069 2.468-4.6716 0-0.0532-0.26789-0.0986-0.59531-0.10079-0.73975-5e-3 -1.1779-0.27322-1.2901-0.7897-0.0868-0.39962 1.0549-2.6458 1.3448-2.6458 0.0856 0 0.35258-0.38695 0.59322-0.8599 1.9256-3.7845 2.3573-6.5545 1.7011-10.914-0.47396-3.1486-1.6611-7.4872-2.2262-8.1359-0.33384-0.38328-0.33927-0.46441-0.0316-0.47106 0.26294-6e-3 0.23622-0.087-0.0913-0.27774-0.25466-0.14832-0.46302-0.41826-0.46302-0.59986 0-0.48316-1.756-3.832-2.5814-4.9229-0.39046-0.51607-0.79976-1.0574-0.90955-1.2029-2.3942-3.1734-5.1522-5.8954-7.6867-7.5864-0.98173-0.65499-1.6961-1.2888-1.5875-1.4085 0.10861-0.11967-2e-3 -0.14616-0.24616-0.0589-0.46576 0.16662-1.7997-0.32879-1.8033-0.66971-1e-3 -0.10914-0.24019-0.19843-0.53123-0.19843s-0.52917-0.11907-0.52917-0.26459-0.18334-0.26458-0.40741-0.26458c-0.22408 0-0.84916-0.22076-1.3891-0.49058-0.5399-0.26982-1.8151-0.69507-2.8337-0.94501-1.0186-0.24993-2.2688-0.56779-2.7781-0.70636-1.5522-0.42229-7.4129-0.4702-8.1892-0.0669-0.37086 0.19263-0.71059 0.24284-0.75495 0.11157-0.04665-0.13806-0.41121-0.14387-0.86479-0.0138-0.43128 0.12368-0.84239 0.22808-0.91359 0.232-0.75287 0.0414-3.3003 0.71009-3.3003 0.86631 0 0.20994-2.8853 1.1578-3.2411 1.0647-0.10914-0.0285-0.19844 0.0672-0.19844 0.21268 0 0.14552-0.23812 0.26459-0.52917 0.26459-0.29104 0-0.52917 0.11906-0.52917 0.26458s-0.1229 0.26458-0.27312 0.26458c-1.2256 0-8.669 6.4844-9.1113 7.9375-0.11075 0.36381-0.41668 0.89959-0.67985 1.1906-1.2736 1.4085-3.7946 7.4699-4.5118 10.848-0.53595 2.5244-0.4143 6.5368 0.26873 8.8635 1.161 3.9548 1.2457 4.5148 0.7392 4.8852-0.76841 0.56187-0.66716 1.0042 1.1832 5.169 1.1495 2.5872 2.1564 4.4979 2.3704 4.4979 0.12375 0 0.225 0.12738 0.225 0.28306 0 1.2428 5.4377 6.8551 8.7312 9.0117 2.1949 1.4372 6.0773 3.4052 6.7175 3.4052 0.17621 0 0.43349 0.0994 0.57173 0.22086 0.3117 0.27387 2.4736 1.0778 3.3249 1.2363 0.34686 0.0646 1.1664 0.24187 1.8213 0.39394 3.0159 0.70034 6.4651 0.7782 9.9219 0.22396zm-8.8778-4.532c-1.7264-1.4967-2.2068-3.4929-1.2943-5.378 0.67613-1.3967 1.6195-1.9546 3.3051-1.9546 1.5101 0 2.5041 0.64957 3.4414 2.249 1.0842 1.8501 0.53596 4.2213-1.2152 5.2557-1.1085 0.65478-3.3902 0.56211-4.2371-0.17209zm7.0378-3.5082c-1.5547-1.5547-0.30058-4.0932 2.0181-4.085 1.3754 5e-3 1.6007 0.13568 2.1799 1.2659 0.52592 1.0263 0.37501 1.7394-0.58511 2.7649-0.93794 1.0018-2.6398 1.0273-3.6129 0.0541zm-12.333-0.57567c-2.0779-1.4232-2.4581-3.5697-0.78555-4.4346 0.9754-0.50441 1.4243-0.50447 2.3992-2.7e-4 1.5392 0.79595 2.1632 3.4551 0.98353 4.1913-1.0178 0.63515-1.9042 0.7183-2.5972 0.24363zm15.689-7.148c-0.52282-0.18225-1.3123-2.0356-1.2232-2.8714 0.15241-1.4296 1.8982-4.4183 3.1543-5.4001 0.6516-0.50932 1.3332-1.0488 1.5146-1.1989 0.18146-0.15006 1.1038-0.85569 2.0497-1.5681 2.1579-1.6252 3.1422-2.6023 4.1428-4.1122 1.3251-1.9997 1.5436-2.8201 1.5152-5.6885-0.0316-3.1934-0.62863-5.0924-1.7735-5.6416-2.0122-0.96534-6.983-5e-3 -8.5117 1.6448-0.31277 0.33748-0.6795 0.66046-0.81495 0.71774-0.13546 0.0573-0.48441 0.57899-0.77546 1.1594-0.53613 1.0691-1.36 1.5113-1.7226 0.92463-0.11351-0.18366 0.19454-1.0161 0.71949-1.9443 0.50489-0.8927 1.0906-1.9803 1.3015-2.4168 0.94552-1.957 1.3542-2.5546 1.9617-2.8683 2.437-1.2585 6.7774-1.2855 9.3713-0.0584 1.5486 0.7326 3.5809 2.4183 3.5817 2.9708 2.4e-4 0.16978 0.12479 0.35014 0.27677 0.4008 0.15199 0.0507 0.29183 0.388 0.31077 0.74965 0.0189 0.36165 0.21893 0.87501 0.44444 1.1408 0.64725 0.76287 0.67413 4.6193 0.0455 6.5341-0.55221 1.6821-0.91981 2.4494-1.4962 3.123-2.1143 2.4709-3.0831 3.3382-4.965 4.4448-1.1861 0.69743-2.3138 1.4218-2.5061 1.6097-0.19229 0.1879-0.46529 0.34165-0.60666 0.34165-0.31485 0-2.9704 1.977-4.008 2.9838-0.41651 0.40416-0.93711 1.1652-1.1569 1.6912-0.36266 0.86796-0.35212 1.3868 0.0562 2.7681 0.13605 0.46023-0.33061 0.75732-0.88568 0.56384zm-16.946-0.56871c-0.2178-0.13461-0.22497-0.45901-0.02603-1.1795 0.35377-1.2812-0.03857-2.5183-1.1666-3.6785-0.95744-0.98471-2.56-2.1775-2.56-1.9054 0 0.1-0.40878-0.13007-0.90839-0.51115-0.49961-0.38107-1.0269-0.69286-1.1717-0.69286-0.14484 0-0.42067-0.15374-0.61296-0.34165-0.1923-0.18791-1.3201-0.91227-2.5061-1.6097-1.8819-1.1066-2.8508-1.9739-4.965-4.4448-1.7314-2.0235-2.5685-6.9209-1.5651-9.1566 0.24281-0.54103 0.47596-1.2797 0.51812-1.6415 0.04215-0.36178 0.20068-0.69912 0.35228-0.74965 0.1516-0.0505 0.27583-0.23079 0.27607-0.40056 7.67e-4 -0.55252 2.0331-2.2382 3.5817-2.9708 2.5939-1.2271 6.9343-1.2 9.3713 0.0584 0.6075 0.31371 1.0162 0.91129 1.9617 2.8683 0.21092 0.43656 0.79659 1.5241 1.3015 2.4168 0.52494 0.92815 0.833 1.7606 0.71948 1.9443-0.35988 0.5823-1.1847 0.14777-1.7226-0.90751-0.29104-0.57096-0.82682-1.3212-1.1906-1.6672-1.9383-1.8434-6.8293-2.8707-8.9115-1.8718-1.1449 0.54925-1.7419 2.4483-1.7735 5.6416-0.02843 2.8684 0.1901 3.6889 1.5152 5.6885 1.1789 1.7791 2.1149 2.6356 6.1272 5.6065 0.14552 0.10775 0.6813 0.54118 1.1906 0.96317 0.50932 0.42198 1.1909 0.84991 1.5147 0.95094 0.65782 0.20529 2.4227 3.4884 2.5582 4.7587 0.09081 0.85176-0.69338 2.6669-1.2433 2.8779-0.20016 0.0768-0.49913 0.0561-0.66437-0.046zm7.7751-0.90985c-0.54217-0.39645-1.0238-2.8126-0.76568-3.8411 0.08978-0.35771 0.05654-0.58404-0.07398-0.50366-0.13211 0.0814-0.27326-1.1016-0.31888-2.6725-0.04502-1.5502-0.19892-3.89-0.34199-5.1997-0.14307-1.3097-0.28483-3.4822-0.31502-4.8279-0.03019-1.3456-0.15167-2.447-0.26995-2.4474-0.11829-5.3e-4 -0.18623-0.20914-0.15098-0.46381 0.03525-0.25466-0.01918-1.4155-0.12096-2.5797-0.10178-1.1642-0.24308-2.9501-0.31401-3.9688-0.07093-1.0186-0.19678-2.4602-0.27966-3.2033-0.33861-3.036 0.92704-4.7461 3.4939-4.7208 1.6586 0.0163 2.6397 0.60486 3.2097 1.9255 0.38819 0.8993 0.65715 3.8705 0.3947 4.3602-0.06294 0.11744-0.13935 1.6844-0.16979 3.4821-0.03482 2.0567-0.17186 3.409-0.36963 3.6473-0.17286 0.20829-0.24728 0.4457-0.16539 0.52759 0.1647 0.1647 0.16689 2.4589 0.0037 3.9035-0.3147 2.7863-0.67504 10.027-0.61888 12.435 0.05521 2.3674-0.01209 2.9052-0.45528 3.638-0.56922 0.94116-1.5062 1.1423-2.372 0.50916zm38.454-1.2066c1.3327-1.9302 1.3011-2.1236-0.51044-3.1232-0.65193-0.35973-1.6292-0.94206-2.1718-1.2941-0.54258-0.35202-1.1081-0.64003-1.2568-0.64003s-0.27025-0.091-0.27025-0.20217c0-0.17242-1.894-1.1208-2.2384-1.1208-0.065 0-0.3584 0.54327-0.65212 1.2073-0.29371 0.66399-0.8946 1.7415-1.3353 2.3945-0.4407 0.65299-0.80128 1.2865-0.80128 1.4077 0 0.36652 0.90517 0.48612 2.1962 0.29018 0.67157-0.10192 1.3192-0.11564 1.4393-0.0305 0.24096 0.1709 1.6561 3.7114 1.6561 4.1433 0 0.1492 0.13567 0.40693 0.30149 0.57275 0.38247 0.38248 1.9847-1.2029 3.6432-3.605zm3.4487-6.4407c0.17519-0.47607 0.48487-1.2228 0.68818-1.6593 0.39889-0.85656 1.2518-3.7974 1.8415-6.35 0.20174-0.87312 0.44088-2.8376 0.53141-4.3656 0.14366-2.4245 0.1034-2.8662-0.3163-3.4702-0.2645-0.38061-0.80074-1.1699-1.1916-1.7539-0.80021-1.1956-1.9367-1.9775-3.5793-2.4624-1.3391-0.39532-1.9553-1.0374-2.5519-2.6591-0.42671-1.16-1.2051-1.8253-2.1356-1.8253-0.62281 0-2.267-2.0603-2.2705-2.845-2e-3 -0.39976-0.30607-1.2568-0.67627-1.9044-0.3702-0.64767-0.69619-1.5106-0.72442-1.9177-0.0282-0.40707-0.14062-0.74036-0.24976-0.74065-0.29037-8e-4 -0.24273-1.2648 0.0546-1.4486 0.13916-0.086 0.19478-0.30817 0.12358-0.4937-0.0712-0.18552 0.0396-0.73943 0.24629-1.2309 0.32039-0.762 0.32167-0.94764 9e-3 -1.2606-0.20186-0.20186-0.36702-0.60366-0.36702-0.8929s-0.11906-0.4523-0.26458-0.36236c-0.14552 0.0899-0.26459 0.0523-0.26459-0.0836 0-0.13592-0.29022-0.24713-0.64495-0.24713s-1.456-0.15167-2.4474-0.33704c-1.4784-0.27644-1.957-0.49986-2.6623-1.2425-0.77328-0.81428-0.8599-1.0648-0.8599-2.4873 0-0.91277 0.17385-1.918 0.41103-2.3766 0.22606-0.43716 0.47442-1.354 0.55191-2.0374 0.12099-1.0671 7e-3 -1.4974-0.8079-3.0477-0.52184-0.99284-0.94879-1.9946-0.94879-2.2262 0-0.82843-0.88622-2.4134-1.4312-2.5598-1.0343-0.2777-1.1645-0.15905-1.353 1.2333-0.25953 1.9167-1.3229 4.4693-2.3285 5.5896-1.2313 1.3717-3.939 2.7117-7.0762 3.5018-2.4807 0.62477-3.2152 0.69186-7.258 0.66295-2.4739-0.0177-5.1528-0.15061-5.9531-0.29539-1.875-0.33917-3.8908-0.89224-4.1323-1.1338-0.10406-0.10407-0.40986-0.18921-0.67954-0.18921s-0.96184-0.29766-1.5381-0.66146c-0.5763-0.3638-1.1806-0.66146-1.343-0.66146-0.4463 0-1.8609-1.073-2.7557-2.0903-2.0211-2.2977-2.9571-5.3553-2.641-8.627 0.121-1.2524 0.05931-1.8695-0.2426-2.4264-0.24312-0.44854-0.40909-0.57869-0.41545-0.3258-0.0065 0.25805-0.42046 0.54395-1.0689 0.73823-0.5941 0.178-1.0583 0.4832-1.0583 0.6958 0 0.64993-1.206 3.1322-1.9489 4.0112-0.39011 0.46161-1.2288 1.0908-1.8637 1.3981-0.63493 0.30736-1.4038 0.76312-1.7085 1.0128s-0.85406 0.66787-1.2207 0.92933c-0.49441 0.3526-0.66655 0.71406-0.66655 1.3996 0 1.2926-0.78612 2.6928-2.3146 4.1225-1.9101 1.7867-2.7212 2.1336-4.7445 2.0296l-1.7066-0.0878-0.63622 1.1897c-1.0605 1.983-2.7804 5.6174-2.8691 6.0627-0.11753 0.58985-0.63821 1.9107-0.99551 2.5254-0.16599 0.28557-0.32845 1.1266-0.36102 1.8688-0.03257 0.74229-0.19028 1.5945-0.35049 1.8939-0.49175 0.91885-1.4642 7.1972-1.2153 7.8459 0.18198 0.47423 1.5828 1.2582 1.8373 1.0282 0.11651-0.10531 0.12893-0.0471 0.02759 0.12942-0.10133 0.17649 0.1094 0.78604 0.46829 1.3546 0.35889 0.56852 0.72723 1.4957 0.81853 2.0604 0.36824 2.2776 0.23408 2.135 2.7163 2.8876 2.7457 0.83256 3.9699 1.5273 4.3562 2.472 0.27649 0.67621 0.29306 0.66 0.64254-0.62881 0.1973-0.7276 0.60534-2.213 0.90675-3.3009 0.32475-1.1721 0.44236-2.0132 0.28868-2.0644-1.5463-0.51542-3.1188-3.8439-2.6978-5.7103 0.22431-0.99458 1.6196-3.6081 1.9265-3.6085 0.31708-5.3e-4 0.2293-1.2752-0.13229-1.9211-0.1819-0.32491-0.61137-0.94289-0.95437-1.3733-0.51052-0.64061-0.59948-0.9969-0.49044-1.9643 0.11084-0.98335 0.32657-1.3524 1.2851-2.1982 0.63354-0.55904 1.7151-1.3831 2.4035-1.8313 0.69532-0.45268 1.9024-1.6796 2.7159-2.7605 1.3987-1.8584 3.0378-3.4107 4.2833-4.0563 0.82012-0.4251 3.2873-0.37108 4.4063 0.0965 1.3455 0.56219 3.2664 1.8176 4.012 2.6221 0.3497 0.37733 0.7676 0.68606 0.92865 0.68606 0.16106 0 0.22009 0.1177 0.13118 0.26155-0.09027 0.14606 0.0079 0.19651 0.2222 0.11425 0.21112-0.081 0.46245-0.0201 0.55852 0.13533 0.09607 0.15544 0.41492 0.28262 0.70857 0.28262s0.87996 0.34605 1.3029 0.76901c0.62738 0.62738 1.0379 0.78574 2.229 0.85989 0.80298 0.05 1.4598 2e-3 1.4596-0.10755-1.99e-4 -0.10914 0.2973-0.19844 0.6611-0.19844 0.45203 0 0.66274 0.1466 0.66551 0.46302 0.0027 0.30691 0.07088 0.35796 0.20225 0.15139 0.21479-0.33771 4.1785-0.50775 6.0114-0.25789 2.2522 0.30701 5.9531 1.2491 5.9531 1.5154 0 0.10738 0.21667 0.13858 0.4815 0.0693 0.26483-0.0693 0.63659 0.061 0.82615 0.28936 0.18955 0.22839 0.4565 0.41527 0.59321 0.41527 0.24411 0 2.6191 1.0199 3.92 1.6833 0.3638 0.18553 0.64425 0.54158 0.62321 0.79121-0.0279 0.33118 0.0973 0.41086 0.46302 0.29478 0.2757-0.0875 0.50127-0.0465 0.50127 0.0912 0 0.13768 0.35719 0.39827 0.79375 0.5791s0.79375 0.40434 0.79375 0.49668c0 0.0923 0.32784 0.31301 0.72853 0.49037 0.79302 0.35103 3.7694 3.1411 3.7694 3.5335 0 0.13309 0.1227 0.24199 0.27266 0.24199 0.6592 0 4.3585 5.17 5.3534 7.4816 0.29239 0.67939 0.39847 0.72238 1.4088 0.57088 0.82881-0.12429 1.3595-0.0277 2.1984 0.40029 2.6024 1.3276 3.7002 3.0129 3.9239 6.0239 0.14385 1.936 0.21081 2.1154 1.1143 2.9858 0.52869 0.50932 1.2185 1.1278 1.5329 1.3744 0.80901 0.63447 1.2414 2.394 1.1705 4.7634-0.0526 1.7576 0.0348 2.2197 0.63744 3.3723 0.38409 0.73456 0.7897 1.2791 0.90135 1.2101 0.11166-0.069 0.34635-0.51497 0.52154-0.99103zm-16.786-29.93c-0.7276-0.33928-1.8885-1.1671-2.5797-1.8396-1.1562-1.1249-1.2564-1.3241-1.2527-2.4894 5e-3 -1.5458 0.19292-1.8698 1.2631-2.1767 1.0887-0.31223 2.6059 0.62167 2.5036 1.541-0.0377 0.33868 0.0469 0.52081 0.19844 0.42715 0.14665-0.0906 0.26463 0.10854 0.26518 0.44765 1e-3 0.82417 0.96547 2.3562 1.5847 2.5182 0.63818 0.16688 1.0072 1.6325 0.49313 1.9582-0.56006 0.35488-1.0498 0.27843-2.4757-0.38646zm-58.781 28.668c0.52794-1.118 0.89789-1.5875 1.251-1.5875 0.51566 0 2.3825 0.62993 3.2498 1.0966 0.26883 0.14464 0.53522 0.21656 0.59196 0.15981 0.05675-0.0567-0.13442-0.77919-0.42482-1.6054-0.2904-0.82625-0.57146-1.8894-0.62458-2.3626-0.08903-0.79303-0.16644-0.85665-0.99-0.81369-1.5536 0.081-4.0416 0.57537-5.0803 1.0094-0.8376 0.34997-0.97548 0.51469-0.84061 1.0042 0.26458 0.96036 1.8418 4.682 1.9852 4.6844 0.07299 1e-3 0.47004-0.71213 0.88234-1.5852zm43.832-43.755c2.5325-0.48733 5.2888-1.5264 6.5526-2.4702 0.54342-0.40584 1.0284-0.82932 1.0778-0.94106 0.0494-0.11174 0.22912-0.34986 0.39945-0.52916 0.72218-0.76025 1.0495-2.8243 1.1559-7.2896 0.064-2.6841 5e-3 -4.7118-0.14273-4.8948-0.13856-0.17188-0.34027-0.84828-0.44823-1.5031-0.27561-1.6717-1.845-4.9025-2.7907-5.7452-0.43678-0.38918-0.73212-0.86924-0.6563-1.0668 0.0758-0.19758 0.0442-0.30137-0.0702-0.23065-0.11442 0.0707-0.38095 0.0174-0.59228-0.11855-0.33439-0.21507-0.33276-0.28093 0.0127-0.50766 0.30882-0.20273 0.22753-0.26143-0.36637-0.26459-1.0944-6e-3 -4.1267-0.59161-4.0132-0.77529 0.0526-0.0851-0.51804-0.16049-1.2681-0.16745-0.7501-7e-3 -4.1618-0.0566-7.5815-0.11039l-6.2177-0.0977-1.901 0.80506c-2.2757 0.96373-4.3459 2.5115-5.0579 3.7813-0.71754 1.2798-1.5561 3.8406-1.776 5.424-0.28174 2.0278-0.38551 8.8722-0.14189 9.3583 0.11886 0.23718 0.37884 0.7874 0.57772 1.2227 0.43103 0.94343 2.3385 2.8687 3.3471 3.3783 0.39527 0.19972 0.9568 0.49992 1.2478 0.66711 1.0842 0.62279 3.0786 1.401 4.5692 1.7829 3.6105 0.92496 10.097 1.0597 14.084 0.29257zm3.0462-16.734c-0.71435-1.7097-0.36366-3.1157 0.83664-3.3543 1.025-0.20375 1.6257 0.45172 1.8388 2.0063 0.20527 1.4976-0.32978 2.3064-1.5258 2.3064-0.61094 0-0.82308-0.17685-1.1496-0.95836zm-22.213-0.61146c-0.39135-0.43244-0.45252-0.7824-0.31374-1.7949 0.22335-1.6295 0.82052-2.253 1.8869-1.9701 1.0714 0.28423 1.4485 1.6489 0.86301 3.1235-0.32515 0.8189-0.55802 1.0364-1.1777 1.0997-0.5139 0.0525-0.93509-0.10079-1.2585-0.45818zm19.957-1.8753c-0.41456-0.7746 0.0976-2.1857 1.0993-3.0285 0.89207-0.75063 1.5978-0.85271 2.0584-0.29774 0.25097 0.3024 0.14325 0.42709-0.57325 0.66356-0.92692 0.30591-1.7877 1.4435-1.7877 2.3627 0 0.77328-0.45228 0.94357-0.79672 0.29998zm-15.96-0.70001c-0.09701-0.097-0.17639-0.40607-0.17639-0.68678 0-0.89324-0.87219-2.0321-1.7877-2.3342-0.7165-0.23647-0.82423-0.36116-0.57326-0.66356 1.1146-1.343 4.0228 1.7098 3.1616 3.3188-0.31908 0.59621-0.36621 0.62382-0.6243 0.36574zm13.053-7.7395c0-0.77043 0.28228-1.3446 0.66108-1.3446 0.18694 0 0.41301-0.29133 0.50237-0.64739 0.0894-0.35607 0.5146-0.85539 0.94497-1.1096 0.88007-0.51987 1.0264-1.0085 1.0984-3.667 0.0618-2.2819-0.20841-3.4871-0.81749-3.6464-0.51682-0.13515-1.331-1.5817-1.331-2.3648 0-0.27825-0.12325-0.73621-0.27389-1.0177-0.19948-0.37273-0.18834-0.51177 0.041-0.51177 0.19 0 0.12709-0.20753-0.15862-0.52323-0.35454-0.39176-0.43763-0.79078-0.33069-1.588 0.12244-0.91287 0.0482-1.1392-0.52038-1.5865-0.36476-0.28692-1.0976-0.60301-1.6285-0.70243-0.53094-0.0994-1.3485-0.34068-1.8167-0.53613-0.48668-0.20312-1.8185-0.35535-3.1089-0.35535-1.9988 0-2.2575 0.0546-2.2575 0.47704 0 0.79552-1.5312 2.618-2.9151 3.4694-1.4327 0.88155-1.7407 1.5348-1.4767 3.1319 0.09013 0.54531 0.23121 2.1226 0.31353 3.505 0.08231 1.3824 0.37875 3.4264 0.65875 4.542 0.28 1.1156 0.50938 2.5444 0.50974 3.175l5.29e-4 1.1465 5.6217 0.0767c3.2807 0.0448 5.6585 0.1825 5.7099 0.33073 0.1573 0.45267 0.57339 0.26865 0.57339-0.25353zm-7.7775-4.9396c-0.23036-0.60033-0.19699-1.6966 0.05165-1.6966 0.45076 0 0.76254 0.58538 0.64349 1.2082-0.15477 0.80961-0.48332 1.0405-0.69514 0.48848zm4.7625 0c-0.23036-0.60033-0.19699-1.6966 0.05165-1.6966 0.45076 0 0.76254 0.58538 0.64349 1.2082-0.15476 0.80961-0.48331 1.0405-0.69514 0.48848zm-22.602-0.90289c0.43835 0 1.1428-0.24623 1.5655-0.54718 0.42265-0.30095 0.76845-0.45879 0.76845-0.35075 0 0.10803 0.30253-0.0878 0.67229-0.43516l0.67229-0.63159-0.58542-0.21656c-0.37243-0.13777-0.65314-0.10698-0.77155 0.0846-0.10237 0.16565-0.40936 0.23358-0.68219 0.15096-0.5138-0.15559-1.5528-0.38587-2.8112-0.62307-0.40018-0.0754-0.7276-0.20526-0.7276-0.28851 0-0.28462 1.15-1.3761 1.4499-1.3761 0.40266 0 2.0491-1.2304 2.3386-1.7476 0.32547-0.58158-0.54211-1.3002-1.5395-1.2752-0.97714 0.0245-2.554 0.36927-2.9104 0.6364-0.14552 0.10906-0.74083 0.26672-1.3229 0.35035-0.58208 0.0836-1.356 0.22519-1.7198 0.31458-0.3638 0.0894-0.92302 0.19856-1.2427 0.24262-0.97426 0.13427-2.2223 0.7411-2.125 1.0332 0.11739 0.35217 0.66119 0.63816 1.5817 0.83185 0.40906 0.0861 0.7276 0.32988 0.7276 0.55691 0 0.32209-0.20081 0.36757-0.99219 0.22472-1.2386-0.22359-1.8981-0.5602-2.4938-1.2728-0.64919-0.7766-0.59401-1.3566 0.18754-1.9714 0.36868-0.29 0.57047-0.58899 0.44842-0.66442-0.33358-0.20617-2.101 0.24885-2.8352 0.7299-0.3554 0.23286-0.84935 0.42339-1.0977 0.42339-0.54967 0-1.4192 0.74724-1.4192 1.2196 0 0.95901 3.0865 2.8725 5.6885 3.5266 0.7276 0.18291 1.5015 0.39699 1.7198 0.47573 0.21828 0.0787 0.57547 0.1664 0.79375 0.19479 0.5172 0.0673 3.3184 0.42045 4.4805 0.56493 0.49973 0.0621 0.9735 0.17786 1.0528 0.25718 0.07932 0.0793 0.18638 0.0177 0.23792-0.13691 0.05154-0.15461 0.45236-0.28112 0.89071-0.28112zm45.625-3.4695c0.32729-0.30748 0.98981-0.66076 1.4723-0.78507 0.86765-0.22356 0.86568-0.22511-0.18115-0.14227-1.191 0.0943-3.1815-0.42052-4.7625-1.2316-0.58209-0.29863-1.8183-0.70369-2.7471-0.90014-2.0457-0.43268-2.5412-0.18913-2.3251 1.1427 0.1246 0.76784 0.0678 0.86492-0.54903 0.93832-0.37841 0.045-0.74074 0.24226-0.80518 0.43829-0.0925 0.28132-3e-3 0.29525 0.42523 0.0662 0.81036-0.4337 1.6049-0.35278 2.3588 0.24024 0.41578 0.32706 0.78694 0.44176 0.96777 0.29907 0.71429-0.56363 2.383-0.8774 3.7548-0.70601 1.1772 0.14708 1.4333 0.27024 1.4333 0.68921 0 0.65486 0.2207 0.64359 0.95785-0.0489zm4.0887-1.5364c0.42489-0.4249 1.1301-0.85107 1.5671-0.94706 0.43704-0.096 0.79461-0.31492 0.79461-0.4865 0-0.35485-2.3347-1.4672-4.4979-2.1429-0.80036-0.25002-1.6338-0.52285-1.8521-0.6063-0.45489-0.1739-0.37358-0.15281-2.6398-0.68478-1.785-0.41901-2.1227-0.38665-2.1227 0.20342 0 0.42871-0.58016 0.67415-1.5935 0.67415-0.71173 0-1.2686 0.4011-0.97056 0.69912 0.0741 0.0741 0.53252 0.17023 1.0187 0.2136 1.337 0.11928 2.9682 0.45543 3.2652 0.67289 0.14552 0.10653 0.95739 0.40754 1.8042 0.6689 1.5552 0.48005 3.6198 1.7605 3.6198 2.2451 0 0.51803 0.8484 0.24898 1.607-0.50962z" stroke-width=".26458"/>
 </g>
</svg>
